PathFileType	4	(X/Y/Z)	Patient4_TMGait_0pt4_03_right_22.trc.trc
DataRate	CameraRate	NumFrames	NumMarkers	Units	OrigDataRate	OrigDataStartFrame	OrigNumFrames
74.468085106383	74.468085106383	6	33	mm	74.468085106383	53	       141
Frame#	Time	Sacral			L.Shoulder			Chest			R.Shoulder			Neck			R.ASIS			L.ASIS			R.Thigh.Superior			R.Thigh.Lateral			R.Thigh.Inferior			R.Patella			L.Thigh.Superior			L.Thigh.Lateral			L.Thigh.Inferior			L.Patella			L.Shank.Superior			L.Shank.Lateral			L.Shank.Inferior			R.Shank.Superior			R.Shank.Lateral			R.Shank.Inferior			R.Heel			R.Midfoot.Superior			R.Midfoot.Lateral			R.Toe			L.Heel			L.Midfoot.Lateral			L.Midfoot.Superior			L.Toe			L.Elbow			L.Wrist			R.Elbow			R.Wrist			
		X1	Y1	Z1	X2	Y2	Z2	X3	Y3	Z3	X4	Y4	Z4	X5	Y5	Z5	X6	Y6	Z6	X7	Y7	Z7	X8	Y8	Z8	X9	Y9	Z9	X10	Y10	Z10	X11	Y11	Z11	X12	Y12	Z12	X13	Y13	Z13	X14	Y14	Z14	X15	Y15	Z15	X16	Y16	Z16	X17	Y17	Z17	X18	Y18	Z18	X19	Y19	Z19	X20	Y20	Z20	X21	Y21	Z21	X22	Y22	Z22	X23	Y23	Z23	X24	Y24	Z24	X25	Y25	Z25	X26	Y26	Z26	X27	Y27	Z27	X28	Y28	Z28	X29	Y29	Z29	X30	Y30	Z30	X31	Y31	Z31	X32	Y32	Z32	X33	Y33	Z33	

53	28.808285714286	898.537931266664	1012.142787569324	547.232293354048	1077.423396940664	1437.348986287723	356.969210794879	1194.425729698639	1363.296871203499	505.468948764893	1134.380275373672	1436.802845174997	688.722563945695	1079.835605616883	1497.495796748519	519.913492465025	1135.684783613485	939.058127258118	641.351067780150	1097.312676933061	970.984755979063	370.884950177766	1166.867389461783	738.459694053846	608.605593116945	1084.878885578826	632.240647135900	673.174412103878	1156.482129998287	578.360456578334	589.569698961139	1153.391131165625	489.868879686338	597.242122410060	1181.295097745641	788.954201188950	386.481446879026	1131.784255378012	664.725788892345	304.774558619450	1240.135899088129	603.947445091748	355.890843474415	1259.166543682469	523.326714568640	343.752072683461	1211.604949223836	450.938727195037	333.893579056848	1088.849489100679	367.401713284877	290.832441705864	1127.373089780642	237.608058505524	332.934112703541	1121.113886089105	402.420723848522	604.769639886702	1044.781588271854	302.043406442849	665.381043703885	1082.502357491768	205.070767542347	602.482345031516	944.132683832990	43.931342333863	568.098177464645	1112.764280792113	96.530015248641	612.063060258105	1023.867397708538	37.574402877338	647.485031116040	1232.367213988853	43.213897810676	646.705986626283	977.718710319699	106.984955903404	378.943422223186	1037.230063319369	92.305174017655	289.282169096269	1134.712814007540	135.030496060101	303.782655729920	1241.787985813752	61.571727320582	255.149568603432	1014.413647319895	1092.794675948089	232.023534615201	1084.454072292675	841.479955589781	196.505627869008	1135.120985876184	1095.939413541305	828.234465554845	1304.052925826549	898.718667382053	814.849846069713	
54	28.821714285714	897.434220837730	1012.962253722460	548.854642264259	1076.711267461893	1437.018772636636	356.853761414600	1194.699210621175	1362.725513364715	504.467390050269	1136.608385303678	1436.929053394610	688.103342758197	1080.576310293831	1497.355969128451	519.732488850509	1134.862057216403	938.527521312151	641.010089880269	1094.801257920382	971.219274666265	370.868801581897	1164.302667295653	737.862298866141	607.675135242542	1082.338365607696	632.138566112991	673.213237222483	1152.861270068335	577.831299354766	589.071111266812	1149.237511422643	489.404448906879	596.961238180703	1178.253149085197	789.311614787452	386.705333980097	1129.334966390597	665.451117644572	304.524650050116	1236.904634457317	604.564412988644	357.033317773764	1257.329127277113	525.768070197709	344.303413344962	1213.206726812758	453.057675724574	333.654610019038	1095.880057803178	362.852599434330	289.383948402783	1141.868056032854	234.966754782757	330.986160624583	1116.742217476897	402.101844753665	604.647965644368	1040.195691183583	301.940389528963	665.328951689232	1077.522872281405	204.881405576928	602.426942246320	938.729867654670	43.913806110260	568.149337772004	1107.374578381861	96.457570257361	612.036600859292	1018.455385633447	37.550207326738	647.522249130156	1226.944734369183	43.164481630185	646.756463417897	1000.234577397674	95.047407543806	375.825801574839	1060.847250475652	84.602971843981	286.258145022905	1155.570453243853	132.982869400281	301.233120163573	1267.078900148343	66.396540595951	252.558652973777	1010.257592162758	1092.865577843882	232.638711912311	1073.816968083661	840.126424588802	196.079410862086	1139.183864374297	1096.464610258809	828.353970943351	1311.353674920909	902.418260980667	812.040684822990	
55	28.835142857143	896.336082137750	1013.720547593986	550.270006692829	1076.097194942841	1436.597677539592	356.523847129472	1194.979457560785	1362.032004978611	503.302434121675	1138.764493227930	1436.936881159504	687.279016752069	1081.316470810804	1497.120286522771	519.353955221663	1133.958647114258	937.953633436120	640.556103444299	1092.308146544456	971.259590351339	370.723580440305	1161.754583372115	737.230524175798	606.795625233847	1079.795064374103	631.987210926193	673.199881200047	1149.307590899151	577.276752568563	588.574543335437	1145.174456752339	488.909054327710	596.670401803616	1174.929841915096	789.260193727040	386.961997539750	1126.620139716641	665.909350189411	304.144997046624	1233.198042302365	604.719075148984	358.260063491448	1254.957220257929	527.834226546686	345.010890625535	1214.274336101867	454.973546629434	333.632954406648	1102.815885468765	358.486131954254	287.795319888096	1155.772177394583	232.935573771119	329.351214774151	1112.431723436097	401.749293625776	604.515189518142	1035.653994652937	301.821520530019	665.290059235188	1072.553246741295	204.672048421907	602.370538205600	933.319405766619	43.886929667378	568.210346109562	1101.967926017616	96.374334418629	612.005671863604	1013.038854959355	37.518225328081	647.566592561775	1221.517617595973	43.123044275846	646.800938512369	1022.235410462524	84.524069016389	372.554320265799	1084.167751868217	77.998574814354	283.480569228437	1175.807013382521	131.760721176486	299.290308929097	1291.461858206792	71.911858756680	251.419382871542	1006.224176999943	1092.872814466472	233.074345893083	1063.856417083425	838.973252096085	195.722345491408	1143.024831916658	1096.837834210201	828.148773437644	1318.388063959604	906.112770231388	808.779769517185	
56	28.848571428571	895.254841447316	1014.416081957526	551.460722689320	1075.577383038912	1436.100871934990	355.974655976118	1195.256794987163	1361.238607754777	501.978280394368	1140.820583122170	1436.844013615018	686.250074618301	1082.035906955463	1496.809364292177	518.755976966045	1132.997249606882	937.368213136120	640.000385625732	1089.860153296352	971.126020136539	370.443583399044	1159.250151758145	736.568939550721	605.988433520324	1077.247522959474	631.789348822297	673.124854221694	1145.835455758429	576.697371327959	588.081737997530	1141.212118177240	488.382887821324	596.363226156770	1171.396467961314	788.861792932846	387.239510496599	1123.694937734057	666.125451415142	303.655454427695	1229.160056549347	604.483280739744	359.453868825962	1252.154535371373	529.538654382572	345.821351981311	1214.857178547358	456.685327590995	333.803947607180	1109.535157607951	354.425723804582	286.139628195759	1168.839585982848	231.544023533342	328.078024275238	1108.191724041299	401.365384551841	604.364977165625	1031.160698067017	301.695116945957	665.262615807715	1067.596531307307	204.446639999482	602.311635969799	927.901839037694	43.854436527389	568.278579067561	1096.548877684292	96.293120672909	611.981209295318	1007.619002604236	37.479897011625	647.614822518642	1216.087063894639	43.088381238852	646.838892710562	1043.270963863512	75.565512854389	369.292771582626	1106.719909656975	72.573165281100	281.073891805045	1195.045051407349	131.355978628671	298.006732643004	1314.510992819574	77.975368922037	251.724139614726	1002.316671193472	1092.825255485951	233.331254139181	1054.620743329519	837.993800538378	195.411762475763	1146.646771175814	1097.064058350789	827.606630245316	1325.114919829520	909.782252132927	805.079151516828	
57	28.862000000000	894.204308948312	1015.046235824726	552.408261144194	1075.142498120022	1435.543915645100	355.203754759901	1195.519781567659	1360.371892669470	500.500493301694	1142.747706647721	1436.672490906733	685.019052572418	1082.712508223451	1496.443515550363	517.920636615116	1132.006117714379	936.801310160590	639.351947775001	1087.490370421317	970.843576805686	370.021242569697	1156.810001276738	735.883073455816	605.259695540270	1074.694162395151	631.549875587036	672.978486507421	1142.452929748766	576.093355835927	587.591592789752	1137.353264993167	487.827399369927	596.033906692361	1167.746984127492	788.180802667082	387.508074835237	1120.607520522530	666.108014445267	303.096798026420	1224.936511073768	603.917933395295	360.505019685853	1249.021319579879	530.880289545310	346.684532125555	1214.996497831202	458.175274049695	334.132664483221	1115.872645997618	350.744122110428	284.518769845886	1180.832242767776	230.745392836242	327.190547533854	1104.025674384161	400.953647772137	604.191759678434	1026.715965483341	301.567773784814	665.242103914426	1062.653978878451	204.208379455739	602.249017751934	922.478001202055	43.820172578124	568.350636098015	1091.121597069853	96.221809776739	611.968806021839	1002.196975439704	37.436993671337	647.662332157923	1210.654040998350	43.058966830430	646.868841356108	1062.913487605786	68.189629441037	366.233477899046	1128.008342788096	68.301148363504	279.144216218629	1212.911644824220	131.667193601454	297.375218540522	1335.805084066055	84.360380667550	253.302969651984	998.542465371522	1092.732307457754	233.407006052160	1046.146351879277	837.160384116764	195.123047975859	1150.050805772867	1097.154281122573	826.719196998256	1331.492785248710	913.407912841691	800.953529618305	
58	28.875428571429	893.202404366554	1015.605223249558	553.093921598732	1074.778223691953	1434.940633426381	354.210790140220	1195.755823724599	1359.459973294529	498.875492572134	1144.516708218365	1436.445563549923	683.590429372702	1083.324147482610	1496.039736006957	516.838243587146	1131.015948287210	936.276980931278	638.617652513059	1085.237689793471	970.435188277147	369.449655583869	1154.447194223865	735.178644462448	604.601785877129	1072.133614424023	631.275727592836	672.753522913863	1139.161412674425	575.464012421109	587.102726979751	1133.592590856450	487.245162431572	595.679759935086	1164.095752562723	787.277501307555	387.721065766892	1117.398167512410	665.847368903178	302.525530732764	1220.665025211727	603.067105037473	361.323944273767	1245.654557455591	531.844262632626	347.553799865661	1214.723219674310	459.408344905541	334.578750669767	1121.632135974392	347.460585747137	283.053744430683	1191.527919816730	230.425930039574	326.693165761126	1099.930585005301	400.518406473886	603.992705443582	1022.315383849358	301.444147556243	665.223307085550	1057.725013955180	203.960017044290	602.182260483999	917.049078592177	43.787665181977	568.423065455898	1085.689523458722	96.163462415139	611.969401276732	996.773462470131	37.391434792873	647.704058580883	1205.219334921329	43.032950025526	646.888779317661	1080.772452737416	62.299909721472	363.586588994835	1147.534042319444	65.064270676876	277.776813746361	1229.052001956147	132.512819867066	297.339095465195	1354.940103371749	90.768277023622	255.849522625261	994.912001576636	1092.601351868621	233.296803130163	1038.459004668748	836.444663587174	194.829654555056	1153.234337459555	1097.123870443043	825.483665184065	1337.481144541012	916.971261142752	796.421233506569	
